<mxfile host="app.diagrams.net" agent="Mozilla/5.0 (Windows NT 10.0; Win64; x64; rv:128.0) Gecko/20100101 Firefox/128.0" version="26.1.3">
  <diagram name="第 1 页" id="-I7HLeXx_2oWKyCRgrfu">
    <mxGraphModel dx="709" dy="611" grid="1" gridSize="10" guides="1" tooltips="1" connect="1" arrows="1" fold="1" page="1" pageScale="1" pageWidth="827" pageHeight="1169" math="0" shadow="0">
      <root>
        <mxCell id="0" />
        <mxCell id="1" parent="0" />
        <mxCell id="7Xm544WoYLx9iLDp0Kg5-1" value="&lt;font face=&quot;宋体&quot;&gt;&lt;font style=&quot;font-size: 16px;&quot;&gt;综艺节目&lt;/font&gt;&lt;br&gt;&lt;/font&gt;" style="rounded=0;whiteSpace=wrap;html=1;" vertex="1" parent="1">
          <mxGeometry x="160" y="440" width="120" height="60" as="geometry" />
        </mxCell>
        <mxCell id="7Xm544WoYLx9iLDp0Kg5-2" value="&lt;font face=&quot;宋体&quot;&gt;&lt;font style=&quot;font-size: 16px;&quot;&gt;管理员&lt;/font&gt;&lt;br&gt;&lt;/font&gt;" style="rounded=0;whiteSpace=wrap;html=1;" vertex="1" parent="1">
          <mxGeometry x="400" y="540" width="120" height="60" as="geometry" />
        </mxCell>
        <mxCell id="7Xm544WoYLx9iLDp0Kg5-3" value="&lt;font face=&quot;宋体&quot;&gt;&lt;font style=&quot;font-size: 16px;&quot;&gt;综艺节目评论&lt;/font&gt;&lt;br&gt;&lt;/font&gt;" style="rounded=0;whiteSpace=wrap;html=1;" vertex="1" parent="1">
          <mxGeometry x="400" y="440" width="120" height="60" as="geometry" />
        </mxCell>
        <mxCell id="7Xm544WoYLx9iLDp0Kg5-4" value="&lt;font face=&quot;宋体&quot;&gt;&lt;font style=&quot;font-size: 16px;&quot;&gt;用户&lt;/font&gt;&lt;br&gt;&lt;/font&gt;" style="rounded=0;whiteSpace=wrap;html=1;" vertex="1" parent="1">
          <mxGeometry x="160" y="540" width="120" height="60" as="geometry" />
        </mxCell>
        <mxCell id="7Xm544WoYLx9iLDp0Kg5-5" value="&lt;font face=&quot;宋体&quot;&gt;&lt;font style=&quot;font-size: 16px;&quot;&gt;用户信息&lt;/font&gt;&lt;br&gt;&lt;/font&gt;" style="ellipse;whiteSpace=wrap;html=1;" vertex="1" parent="1">
          <mxGeometry x="414" width="120" height="80" as="geometry" />
        </mxCell>
        <mxCell id="7Xm544WoYLx9iLDp0Kg5-6" value="&lt;font face=&quot;宋体&quot;&gt;&lt;font style=&quot;font-size: 16px;&quot;&gt;用户信息&lt;/font&gt;&lt;br&gt;&lt;/font&gt;" style="ellipse;whiteSpace=wrap;html=1;" vertex="1" parent="1">
          <mxGeometry x="424" y="10" width="120" height="80" as="geometry" />
        </mxCell>
        <mxCell id="7Xm544WoYLx9iLDp0Kg5-7" value="&lt;font face=&quot;宋体&quot;&gt;&lt;font style=&quot;font-size: 16px;&quot;&gt;用户信息&lt;/font&gt;&lt;br&gt;&lt;/font&gt;" style="ellipse;whiteSpace=wrap;html=1;" vertex="1" parent="1">
          <mxGeometry x="434" y="20" width="120" height="80" as="geometry" />
        </mxCell>
        <mxCell id="7Xm544WoYLx9iLDp0Kg5-8" value="&lt;font face=&quot;宋体&quot;&gt;&lt;font style=&quot;font-size: 16px;&quot;&gt;用户信息&lt;/font&gt;&lt;br&gt;&lt;/font&gt;" style="ellipse;whiteSpace=wrap;html=1;" vertex="1" parent="1">
          <mxGeometry x="444" y="30" width="120" height="80" as="geometry" />
        </mxCell>
        <mxCell id="7Xm544WoYLx9iLDp0Kg5-9" value="&lt;font face=&quot;宋体&quot;&gt;&lt;font style=&quot;font-size: 16px;&quot;&gt;用户信息&lt;/font&gt;&lt;br&gt;&lt;/font&gt;" style="ellipse;whiteSpace=wrap;html=1;" vertex="1" parent="1">
          <mxGeometry x="454" y="40" width="120" height="80" as="geometry" />
        </mxCell>
        <mxCell id="7Xm544WoYLx9iLDp0Kg5-10" value="&lt;font face=&quot;宋体&quot;&gt;&lt;font style=&quot;font-size: 16px;&quot;&gt;用户信息&lt;/font&gt;&lt;br&gt;&lt;/font&gt;" style="ellipse;whiteSpace=wrap;html=1;" vertex="1" parent="1">
          <mxGeometry x="464" y="50" width="120" height="80" as="geometry" />
        </mxCell>
        <mxCell id="7Xm544WoYLx9iLDp0Kg5-11" value="&lt;font face=&quot;宋体&quot;&gt;&lt;font style=&quot;font-size: 16px;&quot;&gt;用户信息&lt;/font&gt;&lt;br&gt;&lt;/font&gt;" style="ellipse;whiteSpace=wrap;html=1;" vertex="1" parent="1">
          <mxGeometry x="474" y="60" width="120" height="80" as="geometry" />
        </mxCell>
        <mxCell id="7Xm544WoYLx9iLDp0Kg5-12" value="&lt;font face=&quot;宋体&quot;&gt;&lt;font style=&quot;font-size: 16px;&quot;&gt;用户信息&lt;/font&gt;&lt;br&gt;&lt;/font&gt;" style="ellipse;whiteSpace=wrap;html=1;" vertex="1" parent="1">
          <mxGeometry x="484" y="70" width="120" height="80" as="geometry" />
        </mxCell>
        <mxCell id="7Xm544WoYLx9iLDp0Kg5-13" value="&lt;font face=&quot;宋体&quot;&gt;&lt;font style=&quot;font-size: 16px;&quot;&gt;用户信息&lt;/font&gt;&lt;br&gt;&lt;/font&gt;" style="ellipse;whiteSpace=wrap;html=1;" vertex="1" parent="1">
          <mxGeometry x="494" y="80" width="120" height="80" as="geometry" />
        </mxCell>
        <mxCell id="7Xm544WoYLx9iLDp0Kg5-14" value="&lt;font face=&quot;宋体&quot;&gt;&lt;font style=&quot;font-size: 16px;&quot;&gt;用户信息&lt;/font&gt;&lt;br&gt;&lt;/font&gt;" style="ellipse;whiteSpace=wrap;html=1;" vertex="1" parent="1">
          <mxGeometry x="504" y="90" width="120" height="80" as="geometry" />
        </mxCell>
        <mxCell id="7Xm544WoYLx9iLDp0Kg5-15" value="&lt;font face=&quot;宋体&quot;&gt;&lt;font style=&quot;font-size: 16px;&quot;&gt;用户名&lt;/font&gt;&lt;br&gt;&lt;/font&gt;" style="ellipse;whiteSpace=wrap;html=1;" vertex="1" parent="1">
          <mxGeometry x="20" y="520" width="120" height="80" as="geometry" />
        </mxCell>
        <mxCell id="7Xm544WoYLx9iLDp0Kg5-18" value="&lt;font face=&quot;宋体&quot;&gt;&lt;font style=&quot;font-size: 16px;&quot;&gt;用户邮箱&lt;/font&gt;&lt;br&gt;&lt;/font&gt;" style="ellipse;whiteSpace=wrap;html=1;" vertex="1" parent="1">
          <mxGeometry x="30" y="610" width="120" height="80" as="geometry" />
        </mxCell>
        <mxCell id="7Xm544WoYLx9iLDp0Kg5-19" value="&lt;font face=&quot;宋体&quot;&gt;&lt;font style=&quot;font-size: 16px;&quot;&gt;用户密码&lt;/font&gt;&lt;br&gt;&lt;/font&gt;" style="ellipse;whiteSpace=wrap;html=1;" vertex="1" parent="1">
          <mxGeometry x="150" y="630" width="120" height="80" as="geometry" />
        </mxCell>
        <mxCell id="7Xm544WoYLx9iLDp0Kg5-21" value="&lt;font face=&quot;宋体&quot;&gt;&lt;font style=&quot;font-size: 16px;&quot;&gt;用户身份&lt;/font&gt;&lt;br&gt;&lt;/font&gt;" style="ellipse;whiteSpace=wrap;html=1;" vertex="1" parent="1">
          <mxGeometry x="270" y="630" width="120" height="80" as="geometry" />
        </mxCell>
      </root>
    </mxGraphModel>
  </diagram>
</mxfile>
